{"title":"Millions (2004) DVDrip NORSUB","uid":7883892,"size":1468058375,"categoryP":"video","categoryS":"movies","magnet":"?xt=urn:btih:80d452933b28fc6e3b5b34dc6696cd894035af74&amp;dn=Millions+%282004%29+DVDrip+NORSUB&amp;tr=udp%3A%2F%2Ftracker.openbittorrent.com%3A80&amp;tr=udp%3A%2F%2Fopen.demonii.com%3A1337&amp;tr=udp%3A%2F%2Ftracker.coppersurfer.tk%3A6969&amp;tr=udp%3A%2F%2Fexodus.desync.com%3A6969","seeders":0,"leechers":0,"uploader":"numenor","files":2,"time":1354564101,"description":"IMDB:   &lt;a href=&quot; http://www.imdb.com/title/tt0366777/&quot; rel=&quot;nofollow&quot; target=&quot;_NEW&quot;&gt; http://www.imdb.com/title/tt0366777/&lt;/a&gt;\nRating:  7.0/10 with 16,498 votes\n\nThe UK is about to switch its currency from Pounds to Euros, giving a gang a chance to rob the poorly-secured train loaded with money on its way to incineration. But, during the robbery, one of the big bags falls literally from the sky on Damian's playhouse, a 7-year old given to talking to saints. The boy then starts seeing what the world and the people around him are made of. Ethics, being human and the soul all come to the forefront in this film.\n\nAudio Language: English\nHardcoded subs: Norwegian\n\n720 * 384\n25.000 fps\n\n\n\n\nFormat                                   : AVI\nFormat/Info                              : Audio Video Interleave\nFile size                                : 1.37 GiB\nDuration                                 : 1h 34mn\nOverall bit rate                         : 2 075 Kbps\nWriting application                      : VirtualDubMod 1.5.4.1 (build 2178/release)\nWriting library                          : VirtualDubMod build 2178/release\n\nVideo\nID                                       : 0\nFormat                                   : MPEG-4 Visual\nFormat profile                           : Advanced Simple@L5\nFormat settings, BVOP                    : 1\nFormat settings, QPel                    : No\nFormat settings, GMC                     : No warppoints\nFormat settings, Matrix                  : Custom\nCodec ID                                 : XVID\nCodec ID/Hint                            : XviD\nDuration                                 : 1h 34mn\nBit rate                                 : 1 908 Kbps\nWidth                                    : 720 pixels\nHeight                                   : 384 pixels\nDisplay aspect ratio                     : 1.85:1\nFrame rate                               : 25.000 fps\nColor space                              : YUV\nChroma subsampling                       : 4:2:0\nBit depth                                : 8 bits\nScan type                                : Progressive\nCompression mode                         : Lossy\nBits/(Pixel*Frame)                       : 0.276\nStream size                              : 1.26 GiB (92%)\nWriting library                          : XviD 63\n\nAudio\nID                                       : 1\nFormat                                   : MPEG Audio\nFormat version                           : Version 1\nFormat profile                           : Layer 3\nMode                                     : Joint stereo\nMode extension                           : MS Stereo\nCodec ID                                 : 55\nCodec ID/Hint                            : MP3\nDuration                                 : 1h 34mn\nBit rate mode                            : Constant\nBit rate                                 : 160 Kbps\nChannel(s)                               : 2 channels\nSampling rate                            : 48.0 KHz\nCompression mode                         : Lossy\nStream size                              : 108 MiB (8%)\nAlignment                                : Aligned on interleaves\nInterleave, duration                     : 80 ms (2.00 video frames)\nInterleave, preload duration             : 504 ms\nWriting library                          : LAME3.98r\nEncoding settings                        : -m j -V 4 -q 2 -lowpass 17.5 -b 160\nLanguage                                 : English","torrent":{"xt":"urn:btih:80d452933b28fc6e3b5b34dc6696cd894035af74","amp;dn":"Millions+%282004%29+DVDrip+NORSUB","amp;tr":["udp%3A%2F%2Ftracker.openbittorrent.com%3A80","udp%3A%2F%2Fopen.demonii.com%3A1337","udp%3A%2F%2Ftracker.coppersurfer.tk%3A6969","udp%3A%2F%2Fexodus.desync.com%3A6969"],"infoHash":"80d452933b28fc6e3b5b34dc6696cd894035af74","infoHashBuffer":{"type":"Buffer","data":[128,212,82,147,59,40,252,110,59,91,52,220,102,150,205,137,64,53,175,116]},"announce":[],"urlList":[]}}